<svg width="61" height="60" viewBox="0 0 61 60" fill="none" xmlns="http://www.w3.org/2000/svg">
<path d="M57.8929 28.4423H56.0606L35.4197 15.5058C35.6453 14.9191 35.7632 14.2963 35.7679 13.6676V2.05563C35.7636 1.77849 35.6507 1.51416 35.4535 1.3197C35.2564 1.12524 34.9909 1.01625 34.7143 1.01626C34.4376 1.01627 34.1721 1.12527 33.975 1.31975C33.7779 1.51422 33.665 1.77856 33.6607 2.0557V9.47205C32.7516 8.78047 31.6415 8.40609 30.5 8.4061C29.3585 8.40611 28.2484 8.78051 27.3393 9.47211V2.05563C27.3393 1.77566 27.2283 1.50716 27.0307 1.30919C26.8331 1.11122 26.5651 1 26.2857 1C26.0063 1 25.7383 1.11122 25.5407 1.30919C25.3431 1.50716 25.2321 1.77566 25.2321 2.05563V13.6676C25.2368 14.2962 25.3547 14.9188 25.5802 15.5054L4.91906 28.4423H3.10714C2.54852 28.443 2.01298 28.6657 1.61797 29.0615C1.22296 29.4573 1.00072 29.9938 1 30.5536V55.8887C1.00072 56.4485 1.22296 56.985 1.61797 57.3808C2.01298 57.7766 2.54852 57.9993 3.10714 58H19.2163C19.4957 58 19.7637 57.8888 19.9612 57.6908C20.1588 57.4928 20.2698 57.2243 20.2698 56.9444C20.2698 56.6644 20.1588 56.3959 19.9612 56.1979C19.7637 56 19.4957 55.8887 19.2163 55.8887H3.10714V30.5536H5.18226C5.19338 30.554 5.20413 30.5577 5.21532 30.5577C5.20316 30.5455 55.7323 30.5578 55.7343 30.5536C55.755 30.5579 55.7764 30.5579 55.7972 30.5536H57.8929V55.8887H41.7837C41.5043 55.8887 41.2363 56 41.0388 56.1979C40.8412 56.3959 40.7302 56.6644 40.7302 56.9444C40.7302 57.2243 40.8412 57.4928 41.0388 57.6908C41.2363 57.8888 41.5043 58 41.7837 58H57.8929C58.4515 57.9993 58.987 57.7766 59.382 57.3808C59.777 56.985 59.9993 56.4485 60 55.8887V30.5536C59.9993 29.9938 59.777 29.4573 59.382 29.0615C58.987 28.6657 58.4515 28.443 57.8929 28.4423ZM30.5 10.5007C31.3321 10.5101 32.127 10.8479 32.7121 11.4408C33.2972 12.0337 33.6253 12.8338 33.6253 13.6676C33.6253 14.5014 33.2971 15.3016 32.712 15.8944C32.1269 16.4873 31.3321 16.8251 30.4999 16.8345C29.6678 16.8251 28.873 16.4873 28.2879 15.8944C27.7028 15.3015 27.3746 14.5013 27.3746 13.6676C27.3746 12.8338 27.7028 12.0336 28.2879 11.4407C28.873 10.8478 29.6679 10.5101 30.5 10.5007ZM8.89458 28.4423L26.6939 17.2973C27.1869 17.8101 27.778 18.218 28.432 18.4967C29.0859 18.7753 29.7892 18.919 30.4998 18.919C31.2104 18.919 31.9138 18.7754 32.5677 18.4968C33.2217 18.2182 33.8128 17.8103 34.3058 17.2975L52.0878 28.4423H8.89458Z" fill="#3B69CB"/>
<path d="M18 35C17.8687 34.9999 17.7386 35.0267 17.6172 35.0787C17.4959 35.1308 17.3856 35.2071 17.2927 35.3033C17.1999 35.3996 17.1262 35.5139 17.076 35.6396C17.0257 35.7654 16.9999 35.9002 17 36.0363V39.9637C17 40.2386 17.1054 40.5021 17.2929 40.6965C17.4804 40.8908 17.7348 41 18 41C18.2652 41 18.5196 40.8908 18.7071 40.6965C18.8946 40.5021 19 40.2386 19 39.9637V36.0363C19.0001 35.9002 18.9743 35.7654 18.924 35.6396C18.8738 35.5139 18.8001 35.3996 18.7073 35.3033C18.6144 35.2071 18.5041 35.1308 18.3828 35.0787C18.2614 35.0267 18.1313 34.9999 18 35Z" fill="#3B69CB"/>
<path d="M8 36.0445V50.9555C8.00511 51.2344 8.11272 51.5 8.29971 51.6953C8.48669 51.8906 8.73814 52 9.00003 52C9.26192 52 9.51336 51.8906 9.70034 51.6953C9.88731 51.5 9.9949 51.2343 10 50.9555V36.0445C9.9949 35.7656 9.8873 35.5 9.70031 35.3047C9.51333 35.1094 9.26189 35 9 35C8.73811 35 8.48667 35.1094 8.29969 35.3047C8.1127 35.5 8.0051 35.7656 8 36.0445Z" fill="#3B69CB"/>
<path d="M53 50.9555V36.0445C52.9949 35.7656 52.8873 35.5 52.7003 35.3047C52.5133 35.1094 52.2619 35 52 35C51.7381 35 51.4866 35.1094 51.2997 35.3047C51.1127 35.5 51.0051 35.7657 51 36.0445V50.9555C51.0051 51.2344 51.1127 51.5 51.2997 51.6953C51.4867 51.8906 51.7381 52 52 52C52.2619 52 52.5133 51.8906 52.7003 51.6953C52.8873 51.5 52.9949 51.2344 53 50.9555Z" fill="#3B69CB"/>
<path d="M44 39.9769V36.0231C43.9949 35.7499 43.8873 35.4897 43.7003 35.2984C43.5133 35.1071 43.2619 35 43 35C42.7381 35 42.4866 35.1072 42.2997 35.2985C42.1127 35.4898 42.0051 35.75 42 36.0231V39.9769C42.0051 40.2501 42.1127 40.5103 42.2997 40.7016C42.4867 40.8929 42.7381 41 43 41C43.2619 41 43.5134 40.8928 43.7003 40.7015C43.8873 40.5102 43.9949 40.25 44 39.9769Z" fill="#3B69CB"/>
<path d="M30.5 36C27.4511 36.0036 24.5281 37.2193 22.3722 39.3805C20.2164 41.5417 19.0036 44.4718 19 47.5282C19.6273 62.8292 41.3727 62.8187 42 47.5282C41.9964 44.4718 40.7836 41.5417 38.6278 39.3805C36.4719 37.2193 33.5489 36.0036 30.5 36ZM30.5 56.9603C28.0052 56.9583 25.6131 55.964 23.8489 54.1955C22.0848 52.4271 21.0929 50.0291 21.0909 47.5282C21.5823 35.0253 39.4177 35.0358 39.9091 47.5282C39.9071 50.0291 38.9152 52.4271 37.1511 54.1956C35.387 55.964 32.9949 56.9583 30.5 56.9603Z" fill="#3B69CB"/>
<path d="M31.987 52.9563H31.5324V46.0219C31.5324 45.8876 31.5058 45.7547 31.4539 45.6307C31.4021 45.5067 31.326 45.394 31.2302 45.2991C31.1343 45.2042 31.0204 45.129 30.8951 45.0776C30.7699 45.0263 30.6356 44.9999 30.5 45H29.0129C28.7425 45.0051 28.4849 45.115 28.2955 45.3061C28.1061 45.4972 28 45.7542 28 46.0219C28 46.2896 28.1061 46.5466 28.2956 46.7377C28.485 46.9288 28.7426 47.0386 29.013 47.0437H29.4676V52.9563H29.0129C28.7426 52.9615 28.4852 53.0715 28.2959 53.2625C28.1066 53.4536 28.0005 53.7106 28.0005 53.9782C28.0005 54.2458 28.1066 54.5027 28.2959 54.6938C28.4852 54.8848 28.7427 54.9948 29.013 55H31.987C32.2574 54.9949 32.515 54.885 32.7045 54.6939C32.8939 54.5029 33 54.2458 33 53.9781C33 53.7104 32.8939 53.4534 32.7045 53.2623C32.515 53.0713 32.2574 52.9614 31.987 52.9563Z" fill="#3B69CB"/>
<path d="M30.5 43C30.8998 42.9942 31.2813 42.8336 31.562 42.5529C31.8427 42.2723 32 41.894 32 41.5C32 41.106 31.8427 40.7277 31.562 40.4471C31.2813 40.1664 30.8998 40.0058 30.5 40C30.1002 40.0058 29.7187 40.1664 29.438 40.4471C29.1573 40.7277 29 41.106 29 41.5C29 41.894 29.1573 42.2723 29.438 42.5529C29.7187 42.8336 30.1002 42.9942 30.5 43Z" fill="#3B69CB"/>
</svg>
