<svg width="60" height="60" viewBox="0 0 60 60" fill="none" xmlns="http://www.w3.org/2000/svg">
<g clip-path="url(#clip0_27_655)">
<path d="M4.45956 35.1624V53.4441C4.45956 54.868 5.61808 56.0265 7.04191 56.0265C8.46597 56.0265 9.62437 54.868 9.62437 53.4441V35.1624C9.62437 33.7384 8.46597 32.5799 7.04191 32.5799C5.61796 32.5799 4.45956 33.7384 4.45956 35.1624ZM7.86316 35.1624V53.4441C7.86316 53.8969 7.49472 54.2652 7.04191 54.2652C6.5891 54.2652 6.22078 53.8969 6.22078 53.4441V35.1624C6.22078 34.7095 6.5891 34.3411 7.04191 34.3411C7.49472 34.3411 7.86316 34.7095 7.86316 35.1624Z" fill="#3B69CB"/>
<path d="M14.6946 32.5799C13.2706 32.5799 12.1122 33.7393 12.1122 35.1645V53.442C12.1122 54.8671 13.2707 56.0265 14.6946 56.0265C16.1187 56.0265 17.2771 54.8671 17.2771 53.442V35.1645C17.2772 33.7393 16.1187 32.5799 14.6946 32.5799ZM15.5159 53.442C15.5159 53.8959 15.1474 54.2652 14.6946 54.2652C14.2418 54.2652 13.8734 53.8958 13.8734 53.442V35.1645C13.8734 34.7105 14.2418 34.3411 14.6946 34.3411C15.1474 34.3411 15.5159 34.7105 15.5159 35.1645V53.442Z" fill="#3B69CB"/>
<path d="M19.765 35.1624V53.4441C19.765 54.868 20.9234 56.0265 22.3473 56.0265C23.7714 56.0265 24.9298 54.868 24.9298 53.4441V35.1624C24.9298 33.7384 23.7712 32.5799 22.3473 32.5799C20.9234 32.5799 19.765 33.7384 19.765 35.1624ZM23.1684 35.1624V53.4441C23.1684 53.8969 22.8 54.2652 22.3472 54.2652C21.8944 54.2652 21.526 53.8969 21.526 53.4441V35.1624C21.526 34.7095 21.8944 34.3411 22.3472 34.3411C22.8 34.3411 23.1684 34.7095 23.1684 35.1624Z" fill="#3B69CB"/>
<path d="M27.4175 35.1645V53.442C27.4175 54.8671 28.5759 56.0265 30 56.0265C31.4241 56.0265 32.5825 54.8671 32.5825 53.442V35.1645C32.5825 33.7393 31.4241 32.5799 30 32.5799C28.5759 32.5799 27.4175 33.7393 27.4175 35.1645ZM30.8213 35.1645V53.442C30.8213 53.8959 30.4528 54.2652 30 54.2652C29.5472 54.2652 29.1788 53.8958 29.1788 53.442V35.1645C29.1788 34.7105 29.5472 34.3411 30 34.3411C30.4528 34.3411 30.8213 34.7105 30.8213 35.1645Z" fill="#3B69CB"/>
<path d="M35.0702 35.1624V53.4441C35.0702 54.868 36.2287 56.0265 37.6527 56.0265C39.0766 56.0265 40.235 54.868 40.235 53.4441V35.1624C40.235 33.7384 39.0766 32.5799 37.6527 32.5799C36.2287 32.5799 35.0702 33.7384 35.0702 35.1624ZM38.4738 35.1624V53.4441C38.4738 53.8969 38.1055 54.2652 37.6527 54.2652C37.1999 54.2652 36.8314 53.8969 36.8314 53.4441V35.1624C36.8314 34.7095 37.1999 34.3411 37.6527 34.3411C38.1055 34.3411 38.4738 34.7095 38.4738 35.1624Z" fill="#3B69CB"/>
<path d="M47.8879 53.442V35.1645C47.8879 33.7393 46.7293 32.5799 45.3054 32.5799C43.8813 32.5799 42.7229 33.7393 42.7229 35.1645V53.442C42.7229 54.8671 43.8813 56.0265 45.3054 56.0265C46.7293 56.0265 47.8879 54.8671 47.8879 53.442ZM44.4841 53.442V35.1645C44.4841 34.7105 44.8526 34.3411 45.3054 34.3411C45.7582 34.3411 46.1266 34.7105 46.1266 35.1645V53.442C46.1266 53.8959 45.7582 54.2652 45.3054 54.2652C44.8526 54.2653 44.4841 53.8959 44.4841 53.442Z" fill="#3B69CB"/>
<path d="M55.5404 53.4441V35.1624C55.5404 33.7384 54.382 32.5799 52.9581 32.5799C51.534 32.5799 50.3756 33.7384 50.3756 35.1624V53.4441C50.3756 54.868 51.534 56.0265 52.9581 56.0265C54.382 56.0265 55.5404 54.868 55.5404 53.4441ZM52.1368 53.4441V35.1624C52.1368 34.7095 52.5053 34.3411 52.9581 34.3411C53.4109 34.3411 53.7792 34.7095 53.7792 35.1624V53.4441C53.7792 53.8969 53.4109 54.2652 52.9581 54.2652C52.5053 54.2653 52.1368 53.8969 52.1368 53.4441Z" fill="#3B69CB"/>
<path d="M59.1193 24.6136H54.0611V23.4618C54.0611 21.8556 52.7554 20.5487 51.1505 20.5487C50.3442 20.5487 49.6138 20.8786 49.0862 21.4105L33.0268 13.1556C33.4587 12.5813 33.7317 11.8806 33.7789 11.1187C33.8693 9.66258 33.1403 8.30895 31.8764 7.58613C31.3494 7.28461 30.9945 6.73793 30.904 6.1152H33.6009C35.3823 6.1152 36.8313 4.66605 36.8313 2.8848V0.880664C36.8313 0.394336 36.4371 0 35.9507 0H24.0491C23.5627 0 23.1684 0.394336 23.1684 0.880664V2.8848C23.1684 4.66605 24.6176 6.1152 26.3988 6.1152H29.1333C29.2337 7.37133 29.9296 8.5016 31.002 9.11496C31.6791 9.50226 32.0695 10.2282 32.0211 11.0098C31.9896 11.5179 31.759 11.982 31.4094 12.3244L30.4025 11.8068C30.1499 11.6768 29.8501 11.6768 29.5973 11.8068L28.5845 12.3273C28.1918 11.9426 27.9746 11.4306 27.9746 10.8786C27.9746 10.3923 27.5804 9.99797 27.094 9.99797C26.6075 9.99797 26.2133 10.3922 26.2133 10.8786C26.2133 11.702 26.486 12.5027 26.9745 13.1549L10.9138 21.4106C10.3862 20.8787 9.65566 20.5488 8.84953 20.5488C7.24465 20.5488 5.93895 21.8556 5.93895 23.4619V24.6137H0.880664C0.394219 24.6137 0 25.008 0 25.4944V29.4872V59.1195C0 59.6057 0.394219 60 0.880664 60H41.1157C41.6021 60 41.9964 59.6057 41.9964 59.1193C41.9964 58.633 41.6021 58.2387 41.1157 58.2387H1.76121V30.3677H13.3371C13.8236 30.3677 14.2178 29.9734 14.2178 29.4871C14.2178 29.0007 13.8236 28.6064 13.3371 28.6064H1.76121V26.3749H37.5932C38.0796 26.3749 38.4738 25.9806 38.4738 25.4943C38.4738 25.0079 38.0796 24.6136 37.5932 24.6136H11.7599V23.4618C11.7599 23.2965 11.7454 23.1348 11.7189 22.9771L28.4898 14.3563C29.4435 14.7722 30.5548 14.7703 31.5083 14.3554L48.2811 22.9771C48.2546 23.1348 48.2401 23.2966 48.2401 23.4618V24.6136H41.1157C40.6293 24.6136 40.235 25.0079 40.235 25.4943C40.235 25.9806 40.6293 26.3749 41.1157 26.3749H58.2387V28.6064H16.8596C16.3732 28.6064 15.979 29.0007 15.979 29.4871C15.979 29.9734 16.3732 30.3677 16.8596 30.3677H58.2388V58.2388H44.6382C44.1518 58.2388 43.7576 58.6331 43.7576 59.1195C43.7576 59.6058 44.1518 60.0001 44.6382 60.0001H59.1193C59.6058 60.0001 60 59.6058 60 59.1195V29.4871V25.4943C60 25.0079 59.6058 24.6136 59.1193 24.6136ZM24.9298 2.88469V1.76121H35.0702V2.88469C35.0702 3.6948 34.4112 4.35387 33.6011 4.35387H26.3989C25.5888 4.35387 24.9298 3.6948 24.9298 2.88469ZM7.70016 24.6136V23.4618C7.70016 22.8267 8.21566 22.31 8.84941 22.31C9.48305 22.31 9.99855 22.8267 9.99855 23.4618V24.6136H7.70016ZM50.0013 23.4618C50.0013 22.8267 50.5168 22.31 51.1505 22.31C51.7842 22.31 52.2997 22.8267 52.2997 23.4618V24.6136H50.0013V23.4618Z" fill="#3B69CB"/>
</g>
<defs>
<clipPath id="clip0_27_655">
<rect width="60" height="60" fill="white"/>
</clipPath>
</defs>
</svg>
