<svg width="61" height="60" viewBox="0 0 61 60" fill="none" xmlns="http://www.w3.org/2000/svg">
<g clip-path="url(#clip0_27_517)">
<path d="M47.5918 34.6072C47.5918 34.6072 40.0217 29.9362 40.0122 29.9303C39.4674 29.5941 38.7336 29.7714 38.3985 30.3122C38.0626 30.8542 38.2409 31.592 38.7805 31.9247C38.7805 31.9247 46.3555 36.5988 46.3602 36.6016C46.9048 36.9376 47.6379 36.7648 47.9727 36.2197C48.3075 35.6746 48.1369 34.9432 47.5918 34.6072Z" fill="#3B69CB"/>
<path d="M35.4081 27.2947C34.6596 27.2946 34.0953 28.0071 34.2663 28.7355C34.3344 29.0257 34.5339 29.2892 34.7966 29.4556C34.977 29.5699 35.1872 29.6384 35.4055 29.6384C35.8156 29.6384 36.1894 29.4311 36.4038 29.082C36.8606 28.3383 36.2864 27.2948 35.4081 27.2947Z" fill="#3B69CB"/>
<path d="M23.2733 30.2517C22.9428 29.7251 22.1806 29.555 21.6571 29.8857C21.6571 29.8857 14.1358 34.6285 14.1231 34.6365C13.5811 34.9782 13.4158 35.7104 13.7571 36.2519C13.9623 36.5775 14.3583 36.7684 14.7503 36.7795C14.9709 36.7857 15.1901 36.7349 15.3735 36.6193C15.3735 36.6193 22.9022 31.8707 22.9075 31.8673C23.4494 31.5256 23.6139 30.794 23.2733 30.2517Z" fill="#3B69CB"/>
<path d="M26.245 27.2045C25.7008 27.2045 25.2239 27.587 25.1036 28.1171C24.9397 28.8393 25.5114 29.5482 26.2473 29.5482C26.7905 29.5482 27.27 29.1658 27.3899 28.6352C27.5541 27.9086 26.9876 27.2045 26.245 27.2045Z" fill="#3B69CB"/>
<path d="M60.2126 53.3746C59.7879 52.8862 59.0477 52.8346 58.5593 53.2593C57.3097 54.3457 56.1533 55.4721 54.5137 55.9253C52.6911 56.429 50.959 56.0315 49.3094 55.2067L55.4124 34.6727C55.5643 34.1618 55.3522 33.6128 54.8965 33.3366L49.25 29.9153V19.9248C49.25 19.2777 48.7254 18.7529 48.0782 18.7529H45.7344V15.2373C45.7344 14.5902 45.2098 14.0654 44.5625 14.0654H40.8711V10.5498C40.8711 9.90268 40.3465 9.37791 39.6993 9.37791H34.0157V1.1748C34.0157 0.527694 33.491 0.00292969 32.8438 0.00292969H28.1563C27.5091 0.00292969 26.9844 0.527694 26.9844 1.1748V9.37791H21.3009C20.6536 9.37791 20.129 9.90268 20.129 10.5498V14.0654H16.4376C15.7904 14.0654 15.2657 14.5902 15.2657 15.2373V18.7529H12.922C12.2747 18.7529 11.7501 19.2777 11.7501 19.9248V29.9153L6.10378 33.3365C5.64793 33.6127 5.43593 34.1617 5.58781 34.6726C5.58781 34.6726 11.6758 55.1557 11.6784 55.1646C11.5744 54.8149 9.69921 54.5847 9.36768 54.5418C5.95554 54.1002 3.3609 55.8095 0.903013 57.9466C0.414576 58.3713 0.363014 59.1114 0.787583 59.5998C1.19293 60.066 1.94727 60.1443 2.44074 59.7152C4.97293 57.514 7.82773 55.836 11.1781 57.5114C14.209 59.0268 17.3464 59.6766 20.5033 58.0153C23.0488 56.6754 25.5053 55.5184 28.3466 56.8712L31.2678 58.2622C33.7669 59.4524 36.6202 59.425 39.0958 58.187C40.6213 57.4242 42.1718 56.4092 43.9144 56.2894C45.6225 56.1721 47.273 56.8081 48.7738 57.5591C50.7565 58.5505 53.0776 58.7486 55.2067 58.1416C57.1678 57.5825 58.595 56.3336 60.097 55.0276C60.5856 54.6031 60.6371 53.863 60.2126 53.3746ZM46.9063 21.0966V28.4953L34.6956 21.0966H46.9063ZM29.3282 2.34668H31.6719V9.37791H29.3282V2.34668ZM22.4727 11.7217H38.5274V14.0654H22.4727V11.7217ZM14.0938 21.0966H26.3045L14.0938 28.4953V21.0966ZM29.3282 54.7429C29.3284 54.5346 27.6577 54.1505 27.4391 54.1031C25.3996 53.6617 23.2101 53.942 21.3611 54.9152C20.0195 55.6213 18.7252 56.445 17.1909 56.6426C17.1881 56.6429 17.1852 56.6433 17.1824 56.6436C16.286 56.7526 15.3684 56.6866 14.5007 56.4336L8.0921 34.8722L29.3282 22.0051C29.3282 22.0051 29.3282 54.7416 29.3282 54.7429ZM17.6095 18.7529V16.4091H43.3907V18.7529H17.6095ZM47.1432 54.2676C47.1562 53.905 43.8574 53.9083 43.6364 53.9316C41.6023 54.1467 39.8426 55.1933 38.0475 56.0909C35.9269 57.1512 33.7449 56.8464 31.6719 55.8588V22.0051L52.908 34.8722L47.1432 54.2676Z" fill="#3B69CB"/>
</g>
<defs>
<clipPath id="clip0_27_517">
<rect width="60" height="60" fill="white" transform="translate(0.5)"/>
</clipPath>
</defs>
</svg>
