<svg width="60" height="60" viewBox="0 0 60 60" fill="none" xmlns="http://www.w3.org/2000/svg">
<g clip-path="url(#clip0_27_629)">
<path d="M47.0918 34.6073C47.0918 34.6073 39.5216 29.9362 39.5121 29.9304C38.9673 29.5941 38.2336 29.7715 37.8985 30.3123C37.5626 30.8543 37.7408 31.5921 38.2805 31.9248C38.2805 31.9248 45.8555 36.5989 45.8602 36.6017C46.4047 36.9377 47.1379 36.7648 47.4727 36.2198C47.8075 35.6746 47.6368 34.9433 47.0918 34.6073Z" fill="#3B69CB"/>
<path d="M34.9081 27.2947C34.1597 27.2946 33.5953 28.0071 33.7664 28.7355C33.8345 29.0257 34.0339 29.2892 34.2966 29.4556C34.477 29.5699 34.6872 29.6384 34.9056 29.6384C35.3156 29.6384 35.6894 29.4311 35.9039 29.082C36.3607 28.3383 35.7864 27.2948 34.9081 27.2947Z" fill="#3B69CB"/>
<path d="M22.7733 30.2517C22.4428 29.7251 21.6806 29.555 21.1571 29.8857C21.1571 29.8857 13.6358 34.6285 13.6231 34.6365C13.0811 34.9782 12.9158 35.7104 13.2571 36.2519C13.4623 36.5775 13.8583 36.7684 14.2503 36.7795C14.4709 36.7857 14.6901 36.7349 14.8735 36.6193C14.8735 36.6193 22.4022 31.8707 22.4075 31.8673C22.9494 31.5256 23.1139 30.794 22.7733 30.2517Z" fill="#3B69CB"/>
<path d="M25.745 27.2045C25.2007 27.2045 24.7239 27.587 24.6036 28.1171C24.4396 28.8393 25.0114 29.5482 25.7473 29.5482C26.2905 29.5482 26.77 29.1658 26.8899 28.6352C27.0541 27.9086 26.4876 27.2045 25.745 27.2045Z" fill="#3B69CB"/>
<path d="M59.7125 53.3746C59.2878 52.8862 58.5476 52.8346 58.0592 53.2593C56.8096 54.3457 55.6532 55.4721 54.0137 55.9253C52.1911 56.429 50.4589 56.0315 48.8094 55.2067L54.9124 34.6727C55.0643 34.1618 54.8521 33.6128 54.3964 33.3366L48.75 29.9153V19.9248C48.75 19.2777 48.2253 18.7529 47.5781 18.7529H45.2344V15.2373C45.2344 14.5902 44.7097 14.0654 44.0625 14.0654H40.3711V10.5498C40.3711 9.90268 39.8464 9.37791 39.1992 9.37791H33.5156V1.1748C33.5156 0.527694 32.991 0.00292969 32.3438 0.00292969H27.6563C27.009 0.00292969 26.4844 0.527694 26.4844 1.1748V9.37791H20.8008C20.1536 9.37791 19.6289 9.90268 19.6289 10.5498V14.0654H15.9375C15.2903 14.0654 14.7657 14.5902 14.7657 15.2373V18.7529H12.4219C11.7747 18.7529 11.25 19.2777 11.25 19.9248V29.9153L5.60372 33.3365C5.14786 33.6127 4.93587 34.1617 5.08775 34.6726C5.08775 34.6726 11.1757 55.1557 11.1783 55.1646C11.0744 54.8149 9.19915 54.5847 8.86762 54.5418C5.45548 54.1002 2.86084 55.8095 0.402952 57.9466C-0.0854849 58.3713 -0.137047 59.1114 0.287522 59.5998C0.692873 60.066 1.44721 60.1443 1.94068 59.7152C4.47287 57.514 7.32767 55.836 10.678 57.5114C13.709 59.0268 16.8463 59.6766 20.0032 58.0153C22.5488 56.6754 25.0052 55.5184 27.8466 56.8712L30.7677 58.2622C33.2668 59.4524 36.1201 59.425 38.5957 58.187C40.1212 57.4242 41.6717 56.4092 43.4143 56.2894C45.1224 56.1721 46.7729 56.8081 48.2737 57.5591C50.2564 58.5505 52.5775 58.7486 54.7066 58.1416C56.6677 57.5825 58.095 56.3336 59.5969 55.0276C60.0855 54.6031 60.1371 53.863 59.7125 53.3746ZM46.4062 21.0966V28.4953L34.1955 21.0966H46.4062ZM28.8281 2.34668H31.1719V9.37791H28.8281V2.34668ZM21.9727 11.7217H38.0273V14.0654H21.9727V11.7217ZM13.5938 21.0966H25.8045L13.5938 28.4953V21.0966ZM28.8281 54.7429C28.8284 54.5346 27.1576 54.1505 26.9391 54.1031C24.8995 53.6617 22.71 53.942 20.861 54.9152C19.5195 55.6213 18.2251 56.445 16.6908 56.6426C16.688 56.6429 16.6852 56.6433 16.6824 56.6436C15.7859 56.7526 14.8683 56.6866 14.0007 56.4336L7.59204 34.8722L28.8281 22.0051C28.8281 22.0051 28.8281 54.7416 28.8281 54.7429ZM17.1094 18.7529V16.4091H42.8906V18.7529H17.1094ZM46.6432 54.2676C46.6562 53.905 43.3574 53.9083 43.1363 53.9316C41.1022 54.1467 39.3425 55.1933 37.5475 56.0909C35.4268 57.1512 33.2448 56.8464 31.1719 55.8588V22.0051L52.408 34.8722L46.6432 54.2676Z" fill="#3B69CB"/>
</g>
<defs>
<clipPath id="clip0_27_629">
<rect width="60" height="60" fill="white"/>
</clipPath>
</defs>
</svg>
