<svg width="61" height="60" viewBox="0 0 61 60" fill="none" xmlns="http://www.w3.org/2000/svg">
<g clip-path="url(#clip0_27_185)">
<path d="M22.6818 17.6364V10.3637C22.6818 9.81823 22.3182 9.45459 21.7727 9.45459C21.2273 9.45459 20.8636 9.81823 20.8636 10.3637V17.6364C19.2273 18 18.0454 19.5455 18.0454 21.2728C18.0454 22.3637 18.5 23.2728 19.1363 24L15.8636 29.5455C15.5909 30 15.7727 30.5455 16.2272 30.8182C16.6818 31.091 17.2273 30.9091 17.5 30.4546L20.7727 24.9091C21.1363 25 21.5 25.091 21.8636 25.091C23.9545 25.091 25.5909 23.3637 25.5909 21.3637C25.5 19.4546 24.2273 18 22.6818 17.6364ZM21.7727 23.1819C20.6818 23.1819 19.8636 22.2728 19.8636 21.2728C19.8636 20.1819 20.7727 19.3637 21.7727 19.3637C22.8636 19.3637 23.6818 20.2728 23.6818 21.2728C23.6818 22.2728 22.7727 23.1819 21.7727 23.1819Z" fill="#3B69CB"/>
<path d="M21.7727 7.09095C22.3182 7.09095 22.6818 6.72732 22.6818 6.18186V4.36368C22.6818 3.81823 22.3182 3.45459 21.7727 3.45459C21.2273 3.45459 20.8636 3.81823 20.8636 4.36368V6.18186C20.8636 6.63641 21.2273 7.09095 21.7727 7.09095Z" fill="#3B69CB"/>
<path d="M21.7727 35.3635C21.2273 35.3635 20.8636 35.7272 20.8636 36.2726V38.0908C20.8636 38.6363 21.2273 38.9999 21.7727 38.9999C22.3182 38.9999 22.6818 38.6363 22.6818 38.0908V36.2726C22.6818 35.8181 22.2273 35.3635 21.7727 35.3635Z" fill="#3B69CB"/>
<path d="M7.59095 21.2726C7.59095 20.7272 7.22732 20.3635 6.68186 20.3635H4.86368C4.31823 20.3635 3.95459 20.7272 3.95459 21.2726C3.95459 21.8181 4.31823 22.1817 4.86368 22.1817H6.68186C7.13641 22.1817 7.59095 21.7272 7.59095 21.2726Z" fill="#3B69CB"/>
<path d="M35.8636 21.2726C35.8636 21.8181 36.2273 22.1817 36.7727 22.1817H38.5909C39.1364 22.1817 39.5 21.8181 39.5 21.2726C39.5 20.7272 39.1364 20.3635 38.5909 20.3635H36.7727C36.3182 20.3635 35.8636 20.7272 35.8636 21.2726Z" fill="#3B69CB"/>
<path d="M6.59096 13.5455L8.22732 14.4546C8.68187 14.7273 9.22732 14.5455 9.50005 14.091C9.77278 13.6364 9.59096 13.091 9.13641 12.8182L7.50005 11.9091C7.0455 11.6364 6.50005 11.8182 6.22732 12.2728C6.0455 12.8182 6.13641 13.3637 6.59096 13.5455Z" fill="#3B69CB"/>
<path d="M14.6818 33.4546C14.2272 33.1818 13.6818 33.3636 13.4091 33.8182L12.5 35.4546C12.2272 35.9091 12.4091 36.4546 12.8636 36.7273C13.3181 37 13.8636 36.8182 14.1363 36.3636L15.0454 34.7273C15.2272 34.2727 15.1363 33.7273 14.6818 33.4546Z" fill="#3B69CB"/>
<path d="M28.7727 8.99999C29.2273 9.27272 29.7727 9.0909 30.0454 8.63635L30.9545 6.99999C31.2273 6.54544 31.0454 5.99999 30.5909 5.72726C30.1364 5.45453 29.5909 5.63635 29.3182 6.0909L28.4091 7.72726C28.2273 8.18181 28.3182 8.72726 28.7727 8.99999Z" fill="#3B69CB"/>
<path d="M14.5 9.09084C14.9546 8.81812 15.0455 8.27266 14.7727 7.81812L13.8637 6.18175C13.5909 5.72721 13.0455 5.6363 12.5909 5.90902C12.1364 6.18175 12.0455 6.72721 12.3182 7.18175L13.2273 8.81812C13.5 9.18175 14.0455 9.36357 14.5 9.09084Z" fill="#3B69CB"/>
<path d="M8.31824 28.1817L6.68187 29.0908C6.22733 29.3635 6.13642 29.909 6.40915 30.3635C6.68187 30.8181 7.22733 30.909 7.68187 30.6363L9.31824 29.7272C9.77278 29.4545 9.86369 28.909 9.59097 28.4545C9.31824 27.9999 8.77278 27.909 8.31824 28.1817Z" fill="#3B69CB"/>
<path d="M35.1363 14.3636L36.7727 13.4545C37.2273 13.1818 37.3182 12.6363 37.0454 12.1818C36.7727 11.7272 36.2272 11.6363 35.7727 11.909L34.1363 12.8181C33.6818 13.0908 33.5909 13.6363 33.8636 14.0908C34.1363 14.4545 34.6818 14.5454 35.1363 14.3636Z" fill="#3B69CB"/>
<path d="M37.6818 1.81818H53.4091V23.6364L49.6818 19.9091C49.3182 19.5455 48.7727 19.5455 48.4091 19.9091C48.0454 20.2727 48.0454 20.8182 48.4091 21.1818L53.6818 26.4545C53.8636 26.6364 54.0454 26.7273 54.3182 26.7273C54.5909 26.7273 54.7727 26.6364 54.9545 26.4545L60.2272 21.1818C60.5909 20.8182 60.5909 20.2727 60.2272 19.9091C59.8636 19.5455 59.3182 19.5455 58.9545 19.9091L55.2273 23.6364V0.909091C55.2273 0.363636 54.8636 0 54.3182 0H37.6818C37.1363 0 36.7727 0.363636 36.7727 0.909091C36.7727 1.45455 37.2273 1.81818 37.6818 1.81818Z" fill="#3B69CB"/>
<path d="M59.8636 33.0909C59.6818 33 42.9545 23.8182 42.7727 23.8182C42.8636 22.9091 42.9545 22.0909 42.9545 21.2727C42.9545 9.54545 33.4091 0 21.6818 0C10.0455 0 0.5 9.54545 0.5 21.2727C0.5 33 10.0455 42.5455 21.6818 42.5455C22.5909 42.5455 23.6818 42.4545 24.7727 42.2727V48.4545C24.7727 48.7273 24.9545 49.0909 25.2273 49.1818L42.0455 59.8182C42.2273 59.9091 42.3182 60 42.5 60C42.6818 60 42.8636 59.9091 42.9545 59.9091L59.9545 50.9091C60.2273 50.7273 60.4091 50.4545 60.4091 50.0909V33.9091C60.4091 33.5455 60.2273 33.2727 59.8636 33.0909ZM57.5909 33.9091L53.5909 36.0909L38.5 27.8182L42.5 25.7273L57.5909 33.9091ZM49.9545 38.5455L34.3182 30L36.5909 28.7273L52.6818 37.5455V42.0909L50.5 43.4545V39.3636C50.5 39 50.2273 38.6364 49.9545 38.5455ZM42.5909 42.0909L27.5909 33.6364L32.4091 31.0909L47.6818 39.3636L42.5909 42.0909ZM21.6818 40.6364C11.0455 40.6364 2.31818 31.9091 2.31818 21.2727C2.31818 10.5455 11.0455 1.81818 21.6818 1.81818C32.4091 1.81818 41.1364 10.5455 41.1364 21.2727C41.1364 22.1818 41.0455 23.4545 40.8636 24.5455C40.8636 24.5455 25.4091 32.8182 25.2273 32.8182C24.9545 33 24.7727 33.3636 24.7727 33.6364V40.4545C23.6818 40.5455 22.5909 40.6364 21.6818 40.6364ZM26.5909 47.9091V35.1818L41.5909 43.6364V57.4545L26.5909 47.9091ZM43.4091 57.5455V43.7273L48.5909 40.9091V45C48.5909 45.3636 48.7727 45.6364 49.0455 45.8182C49.3182 46 49.6818 46 49.9545 45.8182L54.0455 43.5455C54.3182 43.3636 54.5 43.0909 54.5 42.7273V37.6364L58.5 35.4545V49.5455L43.4091 57.5455Z" fill="#3B69CB"/>
<path d="M39.591 46.4545L29.6819 40.7273C29.2273 40.4545 28.6819 40.6364 28.4091 41.0909C28.1364 41.5454 28.3182 42.0909 28.7728 42.3636L38.6819 48C39.1364 48.2727 39.6819 48.0909 39.9546 47.6364C40.1364 47.2727 39.9546 46.6364 39.591 46.4545Z" fill="#3B69CB"/>
<path d="M39.5 50.1819L29.5909 44.3637C29.1364 44.091 28.5909 44.2728 28.3182 44.7274C28.0455 45.1819 28.2273 45.7274 28.6818 46.0001L38.5909 51.7274C39.0455 52.0001 39.5909 51.8183 39.8637 51.3637C40.0455 50.9092 39.8637 50.3637 39.5 50.1819Z" fill="#3B69CB"/>
</g>
<defs>
<clipPath id="clip0_27_185">
<rect width="60" height="60" fill="white" transform="translate(0.5)"/>
</clipPath>
</defs>
</svg>
