<svg width="61" height="60" viewBox="0 0 61 60" fill="none" xmlns="http://www.w3.org/2000/svg">
<path d="M20.5 43H18.5C17.9477 43 17.5 43.4477 17.5 44C17.5 44.5523 17.9477 45 18.5 45H20.5C21.0522 45 21.5 44.5523 21.5 44C21.5 43.4477 21.0522 43 20.5 43Z" fill="#3B69CB"/>
<path d="M48.5 43H24.5C23.9477 43 23.5 43.4477 23.5 44C23.5 44.5523 23.9477 45 24.5 45H48.5C49.0522 45 49.5 44.5523 49.5 44C49.5 43.4477 49.0522 43 48.5 43Z" fill="#3B69CB"/>
<path d="M20.5 37H18.5C17.9477 37 17.5 37.4477 17.5 38C17.5 38.5523 17.9477 39 18.5 39H20.5C21.0522 39 21.5 38.5523 21.5 38C21.5 37.4477 21.0522 37 20.5 37Z" fill="#3B69CB"/>
<path d="M48.5 37H24.5C23.9477 37 23.5 37.4477 23.5 38C23.5 38.5523 23.9477 39 24.5 39H48.5C49.0522 39 49.5 38.5523 49.5 38C49.5 37.4477 49.0522 37 48.5 37Z" fill="#3B69CB"/>
<path d="M20.5 31H18.5C17.9477 31 17.5 31.4477 17.5 32C17.5 32.5523 17.9477 33 18.5 33H20.5C21.0522 33 21.5 32.5523 21.5 32C21.5 31.4477 21.0522 31 20.5 31Z" fill="#3B69CB"/>
<path d="M48.5 31H24.5C23.9477 31 23.5 31.4477 23.5 32C23.5 32.5523 23.9477 33 24.5 33H48.5C49.0522 33 49.5 32.5523 49.5 32C49.5 31.4477 49.0522 31 48.5 31Z" fill="#3B69CB"/>
<path d="M20.5 25H18.5C17.9477 25 17.5 25.4477 17.5 26C17.5 26.5523 17.9477 27 18.5 27H20.5C21.0522 27 21.5 26.5523 21.5 26C21.5 25.4477 21.0522 25 20.5 25Z" fill="#3B69CB"/>
<path d="M48.5 25H24.5C23.9477 25 23.5 25.4477 23.5 26C23.5 26.5523 23.9477 27 24.5 27H48.5C49.0522 27 49.5 26.5523 49.5 26C49.5 25.4477 49.0522 25 48.5 25Z" fill="#3B69CB"/>
<path d="M20.5 19H18.5C17.9477 19 17.5 19.4477 17.5 20C17.5 20.5523 17.9477 21 18.5 21H20.5C21.0522 21 21.5 20.5523 21.5 20C21.5 19.4477 21.0522 19 20.5 19Z" fill="#3B69CB"/>
<path d="M48.5 19H24.5C23.9477 19 23.5 19.4477 23.5 20C23.5 20.5523 23.9477 21 24.5 21H48.5C49.0522 21 49.5 20.5523 49.5 20C49.5 19.4477 49.0522 19 48.5 19Z" fill="#3B69CB"/>
<path d="M55.487 14.937C55.482 14.8494 55.4649 14.7629 55.436 14.68C55.425 14.648 55.417 14.617 55.403 14.586C55.3544 14.4773 55.2866 14.378 55.203 14.293L41.203 0.293C41.118 0.209375 41.0187 0.141625 40.91 0.093C40.879 0.079 40.848 0.071 40.817 0.06C40.7334 0.03125 40.6462 0.01375 40.558 0.008C40.541 0.011 40.522 0 40.5 0H12.5C11.9478 0 11.5 0.44775 11.5 1V4H6.5C5.94775 4 5.5 4.44775 5.5 5V59C5.5 59.5522 5.94775 60 6.5 60H48.5C49.0522 60 49.5 59.5522 49.5 59V54H54.5C55.0522 54 55.5 53.5522 55.5 53V15C55.5 14.978 55.489 14.959 55.487 14.937ZM41.5 3.414L52.086 14H41.5V3.414ZM47.5 58H7.5V6H11.5V53C11.5 53.5522 11.9478 54 12.5 54H47.5V58ZM53.5 52H13.5V2H39.5V15C39.5 15.5522 39.9478 16 40.5 16H53.5V52Z" fill="#3B69CB"/>
<path d="M24.5 9H18.5C17.9477 9 17.5 9.44775 17.5 10V16C17.5 16.5522 17.9477 17 18.5 17H24.5C25.0522 17 25.5 16.5522 25.5 16V10C25.5 9.44775 25.0522 9 24.5 9ZM23.5 15H19.5V11H23.5V15Z" fill="#3B69CB"/>
</svg>
