<svg width="60" height="60" viewBox="0 0 60 60" fill="none" xmlns="http://www.w3.org/2000/svg">
<path d="M49.3423 48.6144C48.8569 48.6144 48.4633 49.0079 48.4633 49.4933V57.7567C48.4633 58.0242 48.2456 58.242 47.9781 58.242H43.2534V40.9337C43.2534 40.4483 42.8599 40.0548 42.3745 40.0548C41.8891 40.0548 41.4956 40.4483 41.4956 40.9337V58.2421H31.9817L34.7407 55.2069C35.0421 54.8753 35.1842 54.4029 35.1208 53.9428C35.1197 53.9339 35.1183 53.925 35.1167 53.9161L32.489 38.3926L33.197 37.3269C33.5884 37.6049 33.8899 37.8725 34.4553 37.8725C35.0305 37.8725 35.5683 37.5506 35.8329 37.0207V37.0206L38.6044 31.4659L44.918 33.911C45.1464 34.009 48.4631 35.5027 48.4631 39.4467V45.3916C48.463 45.8769 48.8565 46.2705 49.342 46.2705C49.8274 46.2705 50.2209 45.877 50.2209 45.3916V39.4467C50.2209 34.2502 45.7714 32.3612 45.5821 32.2833C45.5765 32.2809 45.5709 32.2787 45.5653 32.2766L35.0573 28.2071V25.7427C36.7263 24.4447 37.8835 22.5206 38.1741 20.3255C39.0062 20.2669 39.7783 19.9561 40.4089 19.4139C41.2324 18.7057 41.7049 17.675 41.7049 16.5866C41.7049 15.6833 41.379 14.8208 40.7982 14.1488V10.8929C40.7981 4.8866 35.9116 0 29.9053 0C23.899 0 19.0125 4.8866 19.0125 10.8929V14.2341C18.4255 14.8993 18.1063 15.7182 18.1063 16.5865C18.1063 17.6753 18.5785 18.7058 19.4023 19.4141C20.0324 19.9561 20.804 20.2665 21.636 20.3252C21.9288 22.5615 23.1198 24.5573 24.9309 25.8728V28.2071L14.4343 32.2765C14.4288 32.2786 14.4233 32.2808 14.4178 32.283C14.2283 32.361 9.77893 34.2499 9.77893 39.4465V57.7564C9.77893 58.9934 10.7852 59.9996 12.0221 59.9996H20.396C20.8814 59.9996 21.2749 59.6061 21.2749 59.1207C21.2749 58.6354 20.8814 58.2418 20.396 58.2418H18.5049V40.9337C18.5049 40.4483 18.1114 40.0548 17.626 40.0548C17.1406 40.0548 16.7471 40.4483 16.7471 40.9337V58.2421H12.0223C11.7547 58.2421 11.537 58.0243 11.537 57.7568V39.4466C11.537 35.4893 14.876 33.999 15.0811 33.9114L21.3898 31.4657L24.1615 37.0206C24.4267 37.5518 24.9651 37.8725 25.5391 37.8725C26.1017 37.8725 26.4003 37.609 26.7975 37.3269L27.5054 38.3926L24.878 53.9162C24.8764 53.925 24.8751 53.9338 24.8739 53.9427C24.8103 54.4025 24.9525 54.8752 25.254 55.207L28.013 58.2422H24.4979C24.0125 58.2422 23.619 58.6357 23.619 59.1211C23.619 59.6065 24.0125 60 24.4979 60H47.9782C49.2151 60 50.2214 58.9936 50.2214 57.7568V49.4934C50.2212 49.0079 49.8276 48.6144 49.3423 48.6144ZM36.958 30.8284L34.3741 36.0069C34.3099 35.9613 32.9406 34.9884 31.2667 33.7998C31.993 32.9032 31.1433 33.952 34.4583 29.8603L36.958 30.8284ZM31.7628 36.3086L31.0928 37.3172H28.901L28.2309 36.3086L29.9969 35.0543L31.7628 36.3086ZM26.6886 28.4907V26.8459C27.7564 27.2763 28.8976 27.4759 30.0121 27.4759C31.1644 27.4759 32.2944 27.2303 33.2994 26.7908V28.4979L29.9969 32.5743L26.6886 28.4907ZM39.947 16.5866C39.9469 17.1623 39.6975 17.7071 39.2627 18.0811C38.9753 18.3284 38.628 18.4864 38.2478 18.5483V14.6252C39.2579 14.7893 39.947 15.6272 39.947 16.5866ZM21.5633 18.5483C20.5417 18.3825 19.8641 17.5378 19.8641 16.5865C19.8641 15.6469 20.643 14.8821 21.5633 14.6694V18.5483ZM21.6105 12.8784C21.3306 12.9105 21.0097 12.9864 20.7705 13.0677V10.8929C20.7705 5.85586 24.8683 1.75793 29.9054 1.75793C34.9425 1.75793 39.0403 5.85586 39.0403 10.8929V13.0073C38.7848 12.9296 38.5199 12.8783 38.2479 12.8542C38.2479 12.0061 38.2553 12.1697 35.4808 9.18691C34.9706 8.63871 34.1266 8.52387 33.4843 8.94352C30.4222 10.9438 26.6869 11.9487 23.2404 11.7012C22.4844 11.6446 21.7958 12.1425 21.6105 12.8784ZM23.3212 19.2403V13.7569V13.468C27.1152 13.6902 31.0929 12.5631 34.3063 10.5052C35.5787 11.8713 36.2678 12.5879 36.4899 12.8605C36.4899 13.55 36.4899 18.4509 36.4899 19.2402C36.4899 22.8082 33.5807 25.7179 30.0122 25.7179C26.0051 25.718 23.3212 22.6095 23.3212 19.2403ZM25.6199 36.0069L23.036 30.8284L25.5313 29.862L28.7236 33.8024C27.1002 34.9552 25.7672 35.9023 25.6199 36.0069ZM26.6283 54.1057L29.1723 39.0749H30.8212L33.3653 54.1057L29.9968 57.8115L26.6283 54.1057Z" fill="#3B69CB"/>
</svg>
