<svg width="25" height="24" viewBox="0 0 25 24" fill="none" xmlns="http://www.w3.org/2000/svg">
<path d="M12.5 22.75C6.57 22.75 1.75 17.93 1.75 12C1.75 6.07 6.57 1.25 12.5 1.25C18.43 1.25 23.25 6.07 23.25 12C23.25 17.93 18.43 22.75 12.5 22.75ZM12.5 2.75C7.4 2.75 3.25 6.9 3.25 12C3.25 17.1 7.4 21.25 12.5 21.25C17.6 21.25 21.75 17.1 21.75 12C21.75 6.9 17.6 2.75 12.5 2.75Z" fill="#D34E4E"/>
<path d="M12.5 13.75C12.09 13.75 11.75 13.41 11.75 13V8C11.75 7.59 12.09 7.25 12.5 7.25C12.91 7.25 13.25 7.59 13.25 8V13C13.25 13.41 12.91 13.75 12.5 13.75Z" fill="#D34E4E"/>
<path d="M12.5 16.9999C12.37 16.9999 12.24 16.9699 12.12 16.9199C12 16.8699 11.89 16.7999 11.79 16.7099C11.7 16.6099 11.63 16.5099 11.58 16.3799C11.53 16.2599 11.5 16.1299 11.5 15.9999C11.5 15.8699 11.53 15.7399 11.58 15.6199C11.63 15.4999 11.7 15.3899 11.79 15.2899C11.89 15.1999 12 15.1299 12.12 15.0799C12.36 14.9799 12.64 14.9799 12.88 15.0799C13 15.1299 13.11 15.1999 13.21 15.2899C13.3 15.3899 13.37 15.4999 13.42 15.6199C13.47 15.7399 13.5 15.8699 13.5 15.9999C13.5 16.1299 13.47 16.2599 13.42 16.3799C13.37 16.5099 13.3 16.6099 13.21 16.7099C13.11 16.7999 13 16.8699 12.88 16.9199C12.76 16.9699 12.63 16.9999 12.5 16.9999Z" fill="#D34E4E"/>
</svg>
