<svg width="25" height="24" viewBox="0 0 25 24" fill="none" xmlns="http://www.w3.org/2000/svg">
<path d="M12.5 22.75C6.57 22.75 1.75 17.93 1.75 12C1.75 6.07 6.57 1.25 12.5 1.25C18.43 1.25 23.25 6.07 23.25 12C23.25 17.93 18.43 22.75 12.5 22.75ZM12.5 2.75C7.4 2.75 3.25 6.9 3.25 12C3.25 17.1 7.4 21.25 12.5 21.25C17.6 21.25 21.75 17.1 21.75 12C21.75 6.9 17.6 2.75 12.5 2.75Z" fill="white"/>
<path d="M12.5 13.75C12.09 13.75 11.75 13.41 11.75 13V8C11.75 7.59 12.09 7.25 12.5 7.25C12.91 7.25 13.25 7.59 13.25 8V13C13.25 13.41 12.91 13.75 12.5 13.75Z" fill="white"/>
<path d="M12.5 17C12.37 17 12.24 16.97 12.12 16.92C12 16.87 11.89 16.8 11.79 16.71C11.7 16.61 11.63 16.51 11.58 16.38C11.53 16.26 11.5 16.13 11.5 16C11.5 15.87 11.53 15.74 11.58 15.62C11.63 15.5 11.7 15.39 11.79 15.29C11.89 15.2 12 15.13 12.12 15.08C12.36 14.98 12.64 14.98 12.88 15.08C13 15.13 13.11 15.2 13.21 15.29C13.3 15.39 13.37 15.5 13.42 15.62C13.47 15.74 13.5 15.87 13.5 16C13.5 16.13 13.47 16.26 13.42 16.38C13.37 16.51 13.3 16.61 13.21 16.71C13.11 16.8 13 16.87 12.88 16.92C12.76 16.97 12.63 17 12.5 17Z" fill="white"/>
</svg>
