<svg width="40" height="40" viewBox="0 0 40 40" fill="none" xmlns="http://www.w3.org/2000/svg">
<path d="M20 40C31.0457 40 40 31.0457 40 20C40 8.9543 31.0457 0 20 0C8.9543 0 0 8.9543 0 20C0 31.0457 8.9543 40 20 40Z" fill="#3B69CB"/>
<path d="M27.112 12.9417C25.4337 11.26 23.2048 10.2287 20.8275 10.0337C18.4501 9.83881 16.0808 10.4931 14.147 11.8786C12.2131 13.2641 10.8419 15.2896 10.2807 17.5897C9.71959 19.8898 10.0054 22.3132 11.0867 24.4226L10.0253 29.5348C10.0143 29.5856 10.014 29.6382 10.0244 29.6892C10.0348 29.7402 10.0557 29.7886 10.0858 29.8312C10.1299 29.8959 10.1928 29.9457 10.2662 29.974C10.3395 30.0022 10.4199 30.0076 10.4964 29.9894L15.5467 28.8019C17.667 29.8474 20.0925 30.1127 22.3915 29.5507C24.6905 28.9886 26.714 27.6356 28.1018 25.7323C29.4897 23.8291 30.1519 21.4991 29.9706 19.157C29.7894 16.8148 28.7764 14.6124 27.112 12.9417ZM25.5374 25.4101C24.3761 26.559 22.8807 27.3173 21.262 27.5783C19.6433 27.8393 17.9828 27.5898 16.5146 26.865L15.8107 26.5195L12.7145 27.2469L12.7237 27.2087L13.3653 24.1171L13.0206 23.4424C12.2705 21.9807 12.0058 20.321 12.2646 18.701C12.5235 17.0809 13.2925 15.5837 14.4615 14.4238C15.9304 12.967 17.9224 12.1486 19.9994 12.1486C22.0765 12.1486 24.0684 12.967 25.5374 14.4238C25.5499 14.4381 25.5633 14.4514 25.5777 14.4639C27.0284 15.9244 27.8382 17.8947 27.8307 19.9452C27.8231 21.9957 26.9988 23.9601 25.5374 25.4101Z" fill="white"/>
<path d="M25.2623 23.1413C24.8828 23.7342 24.2834 24.4598 23.5299 24.6398C22.2101 24.9563 20.1844 24.6508 17.6639 22.3193L17.6327 22.292C15.4164 20.2533 14.8408 18.5566 14.9801 17.2108C15.0571 16.447 15.6987 15.7559 16.2395 15.3049C16.325 15.2325 16.4264 15.1809 16.5356 15.1544C16.6447 15.1278 16.7586 15.1269 16.8682 15.1519C16.9778 15.1768 17.0799 15.2268 17.1665 15.2979C17.2531 15.369 17.3217 15.4592 17.3669 15.5613L18.1827 17.3799C18.2357 17.4978 18.2553 17.6278 18.2395 17.756C18.2237 17.8842 18.173 18.0056 18.0928 18.1074L17.6804 18.6384C17.5919 18.748 17.5385 18.8815 17.527 19.0215C17.5156 19.1615 17.5467 19.3017 17.6162 19.424C17.8472 19.826 18.4008 20.417 19.0149 20.9644C19.7042 21.5827 20.4686 22.1483 20.9525 22.3411C21.082 22.3936 21.2244 22.4064 21.3613 22.3779C21.4982 22.3494 21.6233 22.2808 21.7206 22.1811L22.1991 21.7028C22.2914 21.6125 22.4062 21.548 22.5318 21.5161C22.6574 21.4842 22.7893 21.4858 22.914 21.5209L24.8516 22.0665C24.9585 22.099 25.0565 22.1554 25.1381 22.2312C25.2196 22.3071 25.2826 22.4004 25.3222 22.5041C25.3619 22.6079 25.3771 22.7192 25.3667 22.8296C25.3563 22.9401 25.3206 23.0467 25.2623 23.1413Z" fill="white"/>
</svg>
