<svg width="61" height="60" viewBox="0 0 61 60" fill="none" xmlns="http://www.w3.org/2000/svg">
<g clip-path="url(#clip0_27_378)">
<path d="M18.262 24.4839C18.044 24.2659 17.7417 24.1405 17.4335 24.1405C17.1253 24.1405 16.823 24.2658 16.605 24.4839C16.387 24.7018 16.2616 25.0042 16.2616 25.3124C16.2616 25.6206 16.387 25.9229 16.605 26.1408C16.8229 26.3587 17.1253 26.4842 17.4335 26.4842C17.7417 26.4842 18.044 26.3589 18.262 26.1408C18.4799 25.9229 18.6053 25.6206 18.6053 25.3124C18.6053 25.0042 18.4799 24.7018 18.262 24.4839Z" fill="#3B69CB"/>
<path d="M56.9842 0H10.3437C8.40522 0 6.82811 1.5771 6.82811 3.51561V22.9687C6.82811 24.9072 8.40522 26.4843 10.3437 26.4843H12.4531C13.1003 26.4843 13.625 25.9595 13.625 25.3124C13.625 24.6653 13.1003 24.1405 12.4531 24.1405H10.3437C9.69756 24.1405 9.17186 23.6148 9.17186 22.9687V3.51561C9.17186 2.86944 9.69756 2.34374 10.3437 2.34374H56.9842C57.6303 2.34374 58.156 2.86944 58.156 3.51561V22.9687C58.156 23.6148 57.6303 24.1405 56.9842 24.1405H49.1459C48.8351 24.1405 48.537 24.264 48.3172 24.4838L44.4584 28.3426L40.5995 24.4838C40.3798 24.264 40.0817 24.1405 39.7709 24.1405H30.6321C30.546 23.9193 30.4486 23.701 30.3383 23.4867C29.4992 21.8566 28.071 20.6651 26.3169 20.1318L24.6226 19.6166C24.0261 19.435 23.3919 19.7528 23.1798 20.3391L20.5176 27.6972C19.7792 29.738 18.3228 31.4334 16.4168 32.4714L13.9177 33.8321C13.3035 33.0866 12.3736 32.6105 11.3345 32.6105H3.84629C2.0013 32.6105 0.500366 34.1115 0.500366 35.9565V56.6536C0.500132 58.4987 2.00118 59.9998 3.84617 59.9998H11.3344C12.5009 59.9998 13.5292 59.3994 14.1283 58.4918L15.3241 58.9608C17.0821 59.6504 18.9312 60 20.8199 60H36.6317C39.0042 60 40.9342 58.0699 40.9342 55.6975C40.9342 54.9122 40.7218 54.176 40.3527 53.5417C42.0981 52.9931 43.3679 51.3603 43.3679 49.4362C43.3679 48.631 43.145 47.877 42.7585 47.2319C44.4296 46.6408 45.6303 45.0458 45.6303 43.1748C45.6303 41.2259 44.3274 39.5765 42.5473 39.0494C42.9093 38.4194 43.1174 37.6904 43.1174 36.9132C43.1174 34.5409 41.1874 32.6107 38.8149 32.6107H29.4179L30.732 28.7091C30.9777 27.9797 31.0939 27.2297 31.086 26.4844H39.2855L43.6298 30.8286C43.8586 31.0574 44.1585 31.1719 44.4584 31.1719C44.7583 31.1719 45.0583 31.0574 45.287 30.8286L49.6314 26.4843H56.9842C58.9227 26.4843 60.4998 24.9072 60.4998 22.9687V3.51561C60.4998 1.5771 58.9227 0 56.9842 0ZM12.3367 56.6537C12.3366 57.2064 11.8871 57.656 11.3344 57.656H3.84617C3.29352 57.656 2.84399 57.2064 2.84399 56.6537V35.9566C2.84399 35.404 3.29352 34.9543 3.84617 34.9543H6.41843V49.3825C6.41843 50.0296 6.94308 50.5544 7.5903 50.5544C8.23752 50.5544 8.76217 50.0296 8.76217 49.3825V34.9543H11.3344C11.7721 34.9543 12.1442 35.2369 12.2805 35.6287C12.2902 35.6854 12.3043 35.7417 12.3228 35.7974C12.3311 35.8494 12.3367 35.9022 12.3367 35.9566V56.6537ZM38.815 34.9542V34.9543C39.8951 34.9543 40.7738 35.833 40.7738 36.9131C40.7738 37.9932 39.8951 38.872 38.815 38.872H32.4575C31.8103 38.872 31.2856 39.3968 31.2856 40.0439C31.2856 40.691 31.8103 41.2157 32.4575 41.2157L41.3279 41.216C42.408 41.216 43.2866 42.0946 43.2866 43.1748C43.2866 44.2549 42.408 45.1337 41.3279 45.1337H32.4575C31.8103 45.1337 31.2856 45.6584 31.2856 46.3055C31.2856 46.9526 31.8103 47.4774 32.4575 47.4774H39.0654C40.1456 47.4774 41.0242 48.3561 41.0242 49.4362C41.0242 50.5163 40.1456 51.395 39.0654 51.395H32.4575C31.8103 51.395 31.2856 51.9197 31.2856 52.5668C31.2856 53.2139 31.8103 53.7387 32.4575 53.7387H36.6318C37.7119 53.7387 38.5906 54.6175 38.5906 55.6976C38.5906 56.7777 37.7119 57.6564 36.6318 57.6564H20.8199C19.2253 57.6564 17.6642 57.3611 16.1798 56.779L14.6803 56.1909V36.0855L17.5375 34.5297C19.947 33.2177 21.7879 31.0745 22.7213 28.4946L25.0051 22.1827L25.6351 22.3742C26.7777 22.7216 27.7079 23.4976 28.2545 24.5594C28.801 25.6211 28.8921 26.8292 28.5109 27.9608L26.6761 33.4083C26.5556 33.7659 26.6148 34.1597 26.8349 34.466C27.0551 34.7724 27.4092 34.9542 27.7867 34.9542H38.815Z" fill="#3B69CB"/>
<path d="M55.1327 11.3643C54.9107 10.6818 54.3316 10.1937 53.6212 10.0907L51.5484 9.79014L50.6209 7.91222C50.303 7.26875 49.66 6.86914 48.9424 6.86914H48.9419C48.2241 6.86937 47.581 7.26933 47.2636 7.91304L46.3371 9.79155L44.2643 10.0933C43.554 10.1968 42.9751 10.6851 42.7535 11.3678C42.5319 12.0504 42.7135 12.7858 43.2278 13.2868L44.728 14.7483L44.3744 16.8128C44.2533 17.5204 44.5387 18.2218 45.1196 18.6436C45.4477 18.8819 45.8314 19.0028 46.2179 19.0028C46.5156 19.0028 46.8149 18.931 47.0913 18.7855L48.9451 17.8103L50.7993 18.7845C51.4347 19.1182 52.1901 19.0635 52.7708 18.6414C53.3513 18.2193 53.6364 17.5177 53.5149 16.8102L53.1603 14.746L54.6599 13.2835C55.1733 12.7822 55.3546 12.0468 55.1327 11.3643ZM51.346 13.2413C50.9048 13.6715 50.7038 14.2911 50.8081 14.8984L51.0428 16.2651L49.8148 15.6198C49.2692 15.3337 48.618 15.3337 48.073 15.6206L46.8457 16.2663L47.0797 14.8995C47.1838 14.2919 46.9823 13.6724 46.5409 13.2425L45.5475 12.2747L46.9199 12.0749C47.5298 11.9862 48.0566 11.6033 48.329 11.0506L48.9425 9.8069L49.5566 11.0503C49.8295 11.6028 50.3565 11.9854 50.9663 12.0739L52.3387 12.2729L51.346 13.2413Z" fill="#3B69CB"/>
<path d="M40.225 11.3643C40.0029 10.6818 39.4239 10.1939 38.7135 10.0907L36.6407 9.79014L35.7131 7.91222C35.3953 7.26875 34.7523 6.86914 34.0347 6.86914H34.0342C33.3164 6.86937 32.6732 7.26933 32.3557 7.91316L31.4294 9.79155L29.3566 10.0933C28.6463 10.1968 28.0674 10.6851 27.8458 11.3678C27.6242 12.0504 27.8058 12.7858 28.32 13.2868L29.8203 14.7483L29.4667 16.8128C29.3455 17.5204 29.6311 18.2219 30.2119 18.6436C30.5399 18.8819 30.9237 19.0028 31.3101 19.0028C31.6077 19.0028 31.9069 18.931 32.1833 18.7855L34.0371 17.8103L35.8915 18.7845C36.527 19.1182 37.2822 19.0635 37.8629 18.6414C38.4435 18.2193 38.7286 17.5177 38.6071 16.8102L38.2525 14.746L39.7521 13.2835C40.2657 12.7822 40.447 12.0469 40.225 11.3643ZM36.4383 13.2413C35.9971 13.6715 35.7961 14.2911 35.9004 14.8984L36.1351 16.2651L34.9071 15.62C34.3614 15.3334 33.7102 15.3338 33.1651 15.6206L31.9378 16.2663L32.1719 14.8995C32.2759 14.2919 32.0745 13.6724 31.633 13.2425L30.6396 12.2747L32.0119 12.0749C32.6217 11.9862 33.1485 11.6034 33.4213 11.0505L34.0347 9.80678L34.6486 11.05C34.9214 11.6027 35.4485 11.9854 36.0585 12.0739L37.4309 12.2729L36.4383 13.2413Z" fill="#3B69CB"/>
<path d="M25.3175 11.3643C25.0954 10.6818 24.5163 10.1937 23.806 10.0907L21.7332 9.79014L20.8056 7.91222C20.4878 7.26875 19.8448 6.86914 19.1272 6.86914H19.1267C18.4089 6.86937 17.7657 7.26933 17.4482 7.91316L16.5219 9.79155L14.4491 10.0933C13.7387 10.1968 13.1599 10.6852 12.9382 11.368C12.7166 12.0506 12.8983 12.7859 13.4124 13.2868L14.9127 14.7483L14.5591 16.8128C14.4379 17.5204 14.7235 18.2219 15.3043 18.6436C15.6323 18.8819 16.0161 19.0028 16.4025 19.0028C16.7001 19.0028 16.9993 18.931 17.2757 18.7855L19.1295 17.8103L20.9838 18.7845C21.6192 19.1182 22.3745 19.0635 22.9552 18.6414C23.5357 18.2193 23.8209 17.5177 23.6993 16.8102L23.3447 14.746L24.8444 13.2835C25.3582 12.7822 25.5394 12.0469 25.3175 11.3643ZM21.5308 13.2413C21.0896 13.6715 20.8886 14.2911 20.9929 14.8984L21.2276 16.2651L19.9996 15.62C19.454 15.3334 18.8026 15.3338 18.2576 15.6206L17.0303 16.2663L17.2645 14.8991C17.3683 14.2918 17.1669 13.6726 16.7255 13.2425L15.7321 12.2747L17.1044 12.0749C17.7142 11.9862 18.241 11.6034 18.5138 11.0505L19.1272 9.80678L19.7411 11.05C20.0139 11.6027 20.541 11.9854 21.151 12.0739L22.5235 12.2729L21.5308 13.2413Z" fill="#3B69CB"/>
<path d="M7.59033 52.4247C6.9431 52.4247 6.41846 52.9494 6.41846 53.5966V53.6148C6.41846 54.2619 6.9431 54.7867 7.59033 54.7867C8.23755 54.7867 8.7622 54.2619 8.7622 53.6148V53.5966C8.7622 52.9494 8.23755 52.4247 7.59033 52.4247Z" fill="#3B69CB"/>
</g>
<defs>
<clipPath id="clip0_27_378">
<rect width="60" height="60" fill="white" transform="translate(0.5)"/>
</clipPath>
</defs>
</svg>
