<svg width="61" height="60" viewBox="0 0 61 60" fill="none" xmlns="http://www.w3.org/2000/svg">
<g clip-path="url(#clip0_27_173)">
<path d="M30.5 14.7656C29.8532 14.7656 29.3281 15.2907 29.3281 15.9375C29.3281 16.5843 29.8532 17.1094 30.5 17.1094C31.1468 17.1094 31.6719 16.5843 31.6719 15.9375C31.6719 15.2907 31.1468 14.7656 30.5 14.7656Z" fill="#3B69CB"/>
<path d="M11.0469 35.8594C11.6937 35.8594 12.2188 35.3343 12.2188 34.6875C12.2188 34.0407 11.6937 33.5156 11.0469 33.5156C10.4001 33.5156 9.875 34.0407 9.875 34.6875C9.875 35.3343 10.4001 35.8594 11.0469 35.8594Z" fill="#3B69CB"/>
<path d="M39.875 3.04688C29.3249 3.04688 20.6659 10.3207 19.9962 19.4829C9.9487 19.9869 0.5 27.2319 0.5 37.0312C0.5 41.1264 2.12048 45.0943 5.07031 48.2382C5.65396 50.6442 4.94534 53.1944 3.18707 54.9527C2.85199 55.2878 2.75174 55.7918 2.93301 56.2299C3.11429 56.6675 3.54138 56.9531 4.01562 56.9531C7.35776 56.9531 10.5786 55.6425 12.9718 53.3331C15.3032 54.1278 18.345 54.6094 21.125 54.6094C31.6737 54.6094 40.3318 47.3373 41.0034 38.177C43.457 38.0681 46.009 37.6149 48.0282 36.9269C50.4214 39.2363 53.6422 40.5469 56.9844 40.5469C57.4586 40.5469 57.8857 40.2612 58.067 39.8236C58.2483 39.3855 58.148 38.8815 57.8129 38.5464C56.0547 36.7882 55.346 34.238 55.9297 31.832C58.8795 28.688 60.5 24.7202 60.5 20.625C60.5 10.443 50.3235 3.04688 39.875 3.04688ZM21.125 52.2656C18.3592 52.2656 15.2075 51.7227 13.0963 50.8827C12.644 50.7024 12.1272 50.8209 11.7981 51.1803C10.3831 52.7271 8.54337 53.8055 6.53882 54.3013C7.6434 52.1851 7.92538 49.6902 7.25339 47.3264C7.20029 47.14 7.10187 46.9698 6.96683 46.8311C4.30814 44.0927 2.84375 40.6123 2.84375 37.0312C2.84375 28.7732 11.2153 21.7969 21.125 21.7969C30.4826 21.7969 38.7031 28.304 38.7031 37.0312C38.7031 45.4317 30.8177 52.2656 21.125 52.2656ZM54.0332 30.4248C53.8981 30.564 53.7997 30.7343 53.7466 30.9201C53.0746 33.284 53.3566 35.7788 54.4612 37.8951C52.4566 37.3997 50.6169 36.3208 49.2019 34.774C48.8728 34.4151 48.356 34.2961 47.9037 34.4765C46.074 35.2043 43.4639 35.7083 40.9997 35.8301C40.6573 31.3985 38.4468 27.2333 34.6675 24.1406H49.9531C50.6004 24.1406 51.125 23.616 51.125 22.9688C51.125 22.3215 50.6004 21.7969 49.9531 21.7969H31.0672C28.4071 20.4428 25.4202 19.6532 22.3459 19.4875C23.0192 11.6167 30.6241 5.39062 39.875 5.39062C49.7847 5.39062 58.1562 12.3669 58.1562 20.625C58.1562 24.2061 56.6919 27.6865 54.0332 30.4248Z" fill="#3B69CB"/>
<path d="M30.5 33.5156H15.7344C15.0871 33.5156 14.5625 34.0402 14.5625 34.6875C14.5625 35.3348 15.0871 35.8594 15.7344 35.8594H30.5C31.1473 35.8594 31.6719 35.3348 31.6719 34.6875C31.6719 34.0402 31.1473 33.5156 30.5 33.5156Z" fill="#3B69CB"/>
<path d="M30.5 40.5469H11.0469C10.3996 40.5469 9.875 41.0715 9.875 41.7188C9.875 42.366 10.3996 42.8906 11.0469 42.8906H30.5C31.1473 42.8906 31.6719 42.366 31.6719 41.7188C31.6719 41.0715 31.1473 40.5469 30.5 40.5469Z" fill="#3B69CB"/>
<path d="M49.9531 14.7656H35.1875C34.5402 14.7656 34.0156 15.2902 34.0156 15.9375C34.0156 16.5848 34.5402 17.1094 35.1875 17.1094H49.9531C50.6004 17.1094 51.125 16.5848 51.125 15.9375C51.125 15.2902 50.6004 14.7656 49.9531 14.7656Z" fill="#3B69CB"/>
</g>
<defs>
<clipPath id="clip0_27_173">
<rect width="60" height="60" fill="white" transform="translate(0.5)"/>
</clipPath>
</defs>
</svg>
