<svg width="40" height="40" viewBox="0 0 40 40" fill="none" xmlns="http://www.w3.org/2000/svg">
<g clip-path="url(#clip0_35_1063)">
<path d="M20 40C31.0457 40 40 31.0457 40 20C40 8.9543 31.0457 0 20 0C8.9543 0 0 8.9543 0 20C0 31.0457 8.9543 40 20 40Z" fill="#3B69CB"/>
<path d="M10.9313 18.6054L28.668 12.0799C29.4912 11.7961 30.2102 12.2715 29.9435 13.4593L29.945 13.4578L26.925 27.034C26.7012 27.9965 26.1018 28.2306 25.2632 27.7771L20.6642 24.5429L18.446 26.582C18.2007 26.8161 17.9938 27.0135 17.5185 27.0135L17.8451 22.5476L26.3685 15.2C26.7395 14.8884 26.2857 14.7129 25.7967 15.023L15.2635 21.3511L10.7228 19.9994C9.73705 19.701 9.71559 19.0589 10.9313 18.6054Z" fill="white"/>
</g>
<defs>
<clipPath id="clip0_35_1063">
<rect width="40" height="40" fill="white"/>
</clipPath>
</defs>
</svg>
