<svg width="61" height="60" viewBox="0 0 61 60" fill="none" xmlns="http://www.w3.org/2000/svg">
<path d="M58.6174 6.98473L53.131 1.49848C52.7642 1.13145 52.296 0.9375 51.7771 0.9375H21.8221C20.7663 0.9375 19.9074 1.79648 19.9074 2.85211V24.8713C19.5844 24.853 19.2593 24.8428 18.9317 24.8428C9.4973 24.8428 1.82187 32.5182 1.82187 41.9525C1.82187 51.3871 9.4973 59.0625 18.9317 59.0625C24.9273 59.0625 30.2116 55.962 33.2678 51.2808H57.2635C58.3192 51.2808 59.1781 50.4218 59.1781 49.3661V8.33848C59.1781 7.81969 58.9842 7.35152 58.6174 6.98473ZM53.1193 4.13836L55.9773 6.99633H53.1193V4.13836ZM18.9317 57.1875C10.5311 57.1875 3.69687 50.3532 3.69687 41.9527C3.69687 33.5522 10.5311 26.7179 18.9317 26.7179C27.3322 26.7179 34.1664 33.5522 34.1664 41.9527C34.1664 50.3532 27.3321 57.1875 18.9317 57.1875ZM57.2635 49.4058H34.3307C35.4262 47.1517 36.0413 44.6228 36.0413 41.9527C36.0413 33.4895 29.8644 26.443 21.7823 25.0818V2.85211C21.7823 2.83172 21.8016 2.8125 21.822 2.8125H51.2442V7.44527C51.2442 8.2316 51.8839 8.87133 52.6702 8.87133H57.303V49.3661C57.3031 49.3864 57.2839 49.4058 57.2635 49.4058ZM39.5429 25.3843C39.7047 25.3843 39.8667 25.3425 40.0116 25.2587L48.1491 20.5605C48.4393 20.3931 48.6179 20.0836 48.6179 19.7487V10.3521C48.6179 10.0172 48.4393 9.7077 48.1491 9.54023L40.0116 4.84195C39.7216 4.67449 39.3642 4.67449 39.0741 4.84195L30.9364 9.54023C30.6462 9.7077 30.4676 10.0172 30.4676 10.3521V19.7486C30.4676 20.0835 30.6462 20.393 30.9364 20.5604L39.074 25.2586C39.2191 25.3425 39.381 25.3843 39.5429 25.3843ZM36.1691 12.02L42.4317 8.40434L42.9165 8.6843L36.6539 12.3L36.1691 12.02ZM35.2316 13.6438L35.7164 13.9237V15.4588L35.2316 15.1788V13.6438ZM44.7915 9.76676L45.8054 10.3521L39.5429 13.9678L38.529 13.3825L44.7915 9.76676ZM40.4804 22.8231V15.5917L46.7429 11.976V19.2074L40.4804 22.8231ZM39.5429 6.73641L40.5567 7.32176L34.2941 10.9375L33.2801 10.3521L39.5429 6.73641ZM32.3426 11.976L33.3566 12.5613V15.7202C33.3566 16.0552 33.5351 16.3646 33.8253 16.5321L36.1851 17.8945C36.3301 17.9782 36.4919 18.0202 36.6539 18.0202C36.8157 18.0202 36.9776 17.9783 37.1226 17.8945C37.4126 17.7271 37.5914 17.4176 37.5914 17.0827V15.0062L38.6053 15.5916V22.8231L32.3426 19.2074V11.976ZM32.381 41.8714C32.2766 41.4819 32.0272 41.1565 31.6789 40.9555C29.2914 39.577 26.9149 38.2942 24.6165 37.0535C23.5647 36.4857 22.4854 35.9029 21.4119 35.3146C21.5586 35.1245 21.7073 34.9425 21.8574 34.7682C21.9551 34.7903 22.0545 34.8039 22.155 34.8039C22.274 34.8039 22.3939 34.7882 22.512 34.7565C22.8655 34.6618 23.1604 34.4357 23.3428 34.1196L24.0397 32.9126C24.2223 32.5965 24.2707 32.2279 24.1759 31.8745C24.0812 31.5213 23.8551 31.2264 23.5389 31.0438L18.234 27.981C18.2339 27.9809 18.2339 27.9809 18.2337 27.9809C17.5807 27.6041 16.7424 27.8285 16.3653 28.4816L15.6683 29.689C15.4858 30.0049 15.4375 30.3736 15.5322 30.7267C15.5908 30.945 15.6997 31.1407 15.8486 31.3016C15.2519 33.008 14.1551 34.9109 12.9757 36.2863C12.7604 36.2366 12.5346 36.2401 12.3151 36.2991C11.9618 36.3938 11.6668 36.6198 11.4841 36.936L10.7874 38.143C10.6048 38.4591 10.5564 38.8277 10.6512 39.1811C10.7459 39.5343 10.972 39.8292 11.2882 40.0118L16.5928 43.0745C16.8032 43.196 17.0369 43.2581 17.2739 43.2581C17.3929 43.2581 17.5128 43.2424 17.6309 43.2108C17.9843 43.1161 18.2792 42.89 18.4619 42.5739L19.1586 41.3668C19.3412 41.0509 19.3896 40.6822 19.2949 40.329C19.236 40.1093 19.1262 39.9121 18.9755 39.7505C19.0515 39.5346 19.1346 39.3162 19.2256 39.0956C20.2726 39.7316 21.3176 40.3753 22.3359 41.0027C24.5596 42.3728 26.8591 43.7896 29.2469 45.1683C29.4787 45.3021 29.7362 45.3704 29.9971 45.3704C30.1284 45.3704 30.2607 45.3532 30.391 45.3183C30.7807 45.2139 31.106 44.9644 31.3068 44.6162L32.2309 43.0159C32.4322 42.6675 32.4855 42.261 32.381 41.8714ZM14.6621 37.1911C15.8037 35.7824 16.8295 34.0032 17.4754 32.3116L20.168 33.8662C19.0262 35.2713 17.9982 37.0492 17.349 38.7423L14.6621 37.1911ZM17.7357 29.8582L22.1626 32.4141L21.9726 32.7432L17.5459 30.1873L17.7357 29.8582ZM17.0915 41.1974L12.6648 38.6415L12.8547 38.3125L17.2815 40.8683L17.0915 41.1974ZM29.8668 43.3608C27.6148 42.0532 25.4329 40.7087 23.3196 39.4065C22.2494 38.7471 21.1496 38.0701 20.047 37.4011C20.1459 37.223 20.248 37.0465 20.3528 36.8719C21.4835 37.4923 22.6198 38.1062 23.726 38.7033C25.9102 39.8824 28.1656 41.0999 30.4237 42.3962L29.8668 43.3608ZM18.7414 46.2446H18.3225V44.8957C18.3225 44.378 17.9027 43.9582 17.385 43.9582H10.2566C9.73882 43.9582 9.31906 44.378 9.31906 44.8957V46.2446H8.77296C8.09843 46.2446 7.54976 46.7936 7.54976 47.468V50.1804C7.54976 50.8549 8.09855 51.4036 8.77296 51.4036H18.7413C19.4158 51.4036 19.9646 50.8548 19.9646 50.1804V47.468C19.9647 46.7936 19.4159 46.2446 18.7414 46.2446ZM11.1941 45.8332H16.4473V46.2446H11.1941V45.8332ZM18.0897 49.5287H9.42476V48.1198H18.0897V49.5287ZM53.4142 29.3453C53.4142 29.863 52.9945 30.2828 52.4767 30.2828H34.5996C34.0818 30.2828 33.6621 29.863 33.6621 29.3453C33.6621 28.8275 34.0818 28.4078 34.5996 28.4078H52.4767C52.9945 28.4078 53.4142 28.8275 53.4142 29.3453ZM53.4142 34.563C53.4142 35.0808 52.9945 35.5005 52.4767 35.5005H37.1839C36.6662 35.5005 36.2464 35.0808 36.2464 34.563C36.2464 34.0453 36.6662 33.6255 37.1839 33.6255H52.4767C52.9945 33.6255 53.4142 34.0454 53.4142 34.563ZM53.4142 39.7808C53.4142 40.2986 52.9945 40.7183 52.4767 40.7183H38.4997C37.9819 40.7183 37.5622 40.2986 37.5622 39.7808C37.5622 39.2631 37.9819 38.8433 38.4997 38.8433H52.4767C52.9945 38.8433 53.4142 39.2631 53.4142 39.7808ZM53.4142 44.9986C53.4142 45.5163 52.9945 45.9361 52.4767 45.9361H38.3847C37.867 45.9361 37.4472 45.5163 37.4472 44.9986C37.4472 44.4809 37.867 44.0611 38.3847 44.0611H52.4767C52.9945 44.0611 53.4142 44.4809 53.4142 44.9986Z" fill="#3B69CB"/>
</svg>
